<svg width="72" height="36" viewBox="0 0 72 36" fill="none" xmlns="http://www.w3.org/2000/svg">
<path d="M61.7629 17.0879C67.1428 17.0879 71.4995 21.3126 71.4995 26.5274C71.4995 31.7423 67.1428 35.967 61.7629 35.967C56.3831 35.967 52.0264 31.7423 52.0264 26.5274C52.0264 21.3126 56.3831 17.0879 61.7629 17.0879ZM61.7629 32.4024C64.9645 32.4024 67.5389 29.762 67.5389 26.5274C67.5389 23.2929 64.9645 20.6525 61.7629 20.6525C58.5614 20.6525 55.987 23.2929 55.987 26.5274C55.987 29.762 58.5614 32.4024 61.7629 32.4024Z" fill="#2B2D33"/>
<path d="M40.2058 35.8937H36.2451V12.1299H40.2058V25.035L46.5428 18.0708H51.5926L44.3974 25.8271L53.2429 35.8937H48.094L40.2058 26.6522V35.8937Z" fill="#2B2D33"/>
<path d="M29.5006 35.8363V26.0337C29.5006 23.2943 27.3552 21.0499 24.6818 21.0499C22.0083 21.0499 19.863 23.2943 19.863 26.0337V35.8363H15.9023V26.2648C15.9023 21.413 19.83 17.4854 24.6818 17.4854C29.5336 17.4854 33.4612 21.413 33.4612 26.2648V35.8363H29.5006Z" fill="#2B2D33"/>
<path d="M12.9588 13.7133C12.9588 15.0335 11.9027 16.0897 10.5824 16.0897C9.26223 16.0897 8.20605 15.0335 8.20605 13.7133C8.20605 12.3931 9.26223 11.3369 10.5824 11.3369C11.9027 11.3369 12.9588 12.3931 12.9588 13.7133ZM12.5628 18.07V35.8929H8.60212V18.07H12.5628Z" fill="#2B2D33"/>
<path d="M4.46064 12.1299V35.8937H0.5V12.1299H4.46064Z" fill="#2B2D33"/>
<path d="M13.2539 9.24219L9.3623 9.24219C12.2597 3.75083 17.9977 0.0327183 24.6447 0.032718C31.2633 0.0327177 37.0297 3.75083 39.9271 9.24219L36.0355 9.24219C33.5073 5.75288 29.2748 3.46482 24.6447 3.46482C20.0145 3.46482 15.7536 5.75289 13.2539 9.24219Z" fill="#4243FF"/>
</svg>
